<svg width="24" height="24" viewBox="0 0 24 24" fill="none" xmlns="http://www.w3.org/2000/svg">
<path d="M24 12C24 5.36774 18.633 0 12 0C5.36774 0 0 5.367 0 12C0 18.5735 5.32214 24 12 24C18.6504 24 24 18.6037 24 12ZM12 1.40625C17.8414 1.40625 22.5938 6.15857 22.5938 12C22.5938 14.1368 21.9582 16.1907 20.7795 17.9304C16.0466 12.8394 7.96198 12.8302 3.22046 17.9304C2.04181 16.1907 1.40625 14.1368 1.40625 12C1.40625 6.15857 6.15857 1.40625 12 1.40625ZM4.09753 19.0547C8.30566 14.3346 15.6954 14.3357 19.9023 19.0547C15.6801 23.7784 8.32159 23.7799 4.09753 19.0547Z" fill="white"/>
<path d="M12 12.7031C14.3262 12.7031 16.2188 10.8105 16.2188 8.48438V7.07812C16.2188 4.75195 14.3262 2.85938 12 2.85938C9.67383 2.85938 7.78125 4.75195 7.78125 7.07812V8.48438C7.78125 10.8105 9.67383 12.7031 12 12.7031ZM9.1875 7.07812C9.1875 5.52722 10.4491 4.26562 12 4.26562C13.5509 4.26562 14.8125 5.52722 14.8125 7.07812V8.48438C14.8125 10.0353 13.5509 11.2969 12 11.2969C10.4491 11.2969 9.1875 10.0353 9.1875 8.48438V7.07812Z" fill="white"/>
</svg>
